<svg width="20" height="20" viewBox="0 0 20 20" fill="none" xmlns="http://www.w3.org/2000/svg"><g clip-path="url(#a)" fill="#996830"><path d="M9.98 1.8c2.66 0 2.98.01 4.03.06a5 5 0 0 1 1.85.35c.47.18.8.4 1.15.74.35.35.57.68.75 1.15.13.35.3.88.34 1.85.05 1.06.06 1.37.06 4.03 0 2.67-.01 2.98-.06 4.04-.04.97-.2 1.5-.34 1.85-.18.47-.4.8-.75 1.15-.35.35-.68.56-1.15.74-.35.14-.87.3-1.85.35-1.05.04-1.37.06-4.03.06-2.67 0-2.98-.02-4.03-.06a5.6 5.6 0 0 1-1.86-.35 3.1 3.1 0 0 1-1.14-.74 3.05 3.05 0 0 1-.75-1.15 5.6 5.6 0 0 1-.34-1.85 69.24 69.24 0 0 1-.06-4.04c0-2.66 0-2.97.06-4.03.04-.97.2-1.5.34-1.85.18-.47.4-.8.75-1.15.34-.35.68-.57 1.14-.74.36-.14.88-.3 1.86-.35 1.05-.05 1.36-.06 4.03-.06Zm0-1.8c-2.71 0-3.05.02-4.12.06a7.31 7.31 0 0 0-2.42.47c-.65.25-1.2.6-1.76 1.15-.56.55-.9 1.11-1.15 1.76a7.32 7.32 0 0 0-.47 2.43c-.05 1.06-.06 1.4-.06 4.1 0 2.72.01 3.06.06 4.12a7.3 7.3 0 0 0 .47 2.43c.25.66.6 1.21 1.15 1.76.55.56 1.11.9 1.76 1.16a7.6 7.6 0 0 0 2.43.46c1.06.05 1.4.06 4.11.06 2.72 0 3.05-.01 4.12-.06a7.36 7.36 0 0 0 2.42-.46c.66-.26 1.21-.6 1.77-1.16.55-.55.9-1.1 1.15-1.76.25-.64.42-1.36.46-2.43.05-1.06.06-1.4.06-4.11 0-2.71 0-3.05-.06-4.12a7.36 7.36 0 0 0-.46-2.42 4.86 4.86 0 0 0-1.15-1.77 4.95 4.95 0 0 0-1.77-1.15 7.32 7.32 0 0 0-2.42-.46 78.52 78.52 0 0 0-4.12-.06Z"/><path d="M9.98 4.85a5.13 5.13 0 1 0 0 10.26 5.13 5.13 0 0 0 0-10.26Zm0 8.46a3.33 3.33 0 1 1 0-6.66 3.33 3.33 0 0 1 0 6.66Zm5.32-7.46a1.2 1.2 0 1 0 0-2.4 1.2 1.2 0 0 0 0 2.4Z"/></g><defs><clipPath id="a"><path fill="#fff" d="M0 0h20v20h-20z"/></clipPath></defs></svg>