<svg width="20" height="17" viewBox="0 0 20 17" fill="none" xmlns="http://www.w3.org/2000/svg"><path d="M20 2.01a7.8 7.8 0 0 1-2.36.68 4.28 4.28 0 0 0 1.8-2.38 8 8 0 0 1-2.6 1.04 4.01 4.01 0 0 0-3-1.35 4.2 4.2 0 0 0-4.1 4.3c0 .33.04.66.11.97a11.49 11.49 0 0 1-8.46-4.48 4.42 4.42 0 0 0 1.27 5.72 3.94 3.94 0 0 1-1.86-.53v.05a4.25 4.25 0 0 0 3.3 4.21 3.9 3.9 0 0 1-1.86.07 4.14 4.14 0 0 0 3.83 2.99 8.02 8.02 0 0 1-6.07 1.77 11.25 11.25 0 0 0 6.29 1.93c7.55 0 11.67-6.54 11.67-12.21v-.56a8.6 8.6 0 0 0 2.04-2.22Z" fill="#996830"/></svg>