<svg width="14" height="15" viewBox="0 0 14 15" fill="none" xmlns="http://www.w3.org/2000/svg"><path d="M3.13 14.5h-2.91v-9.34h2.9v9.34Zm-.25-11.13c-.34.34-.73.5-1.2.5-.45 0-.85-.16-1.18-.5-.33-.33-.5-.72-.5-1.18 0-.46.17-.86.5-1.19.33-.33.73-.5 1.19-.5.46 0 .85.17 1.19.5.33.33.5.73.5 1.19 0 .46-.17.85-.5 1.19Zm11.12 11.13h-2.9v-4.56c0-.36-.02-.64-.04-.85a3.7 3.7 0 0 0-.15-.75 1.1 1.1 0 0 0-.47-.65c-.21-.15-.5-.22-.85-.22-.68 0-1.15.22-1.4.66a3.79 3.79 0 0 0-.35 1.74v4.63h-2.9v-9.34h2.81v1.28h.03a3.08 3.08 0 0 1 2.75-1.53c.71 0 1.3.11 1.75.34.48.2.83.53 1.06.97.25.42.42.87.5 1.37.1.5.16 1.1.16 1.79v5.12Z" fill="#1B3764"/></svg>