<svg width="16" height="13" viewBox="0 0 16 13" fill="none" xmlns="http://www.w3.org/2000/svg"><path d="M14.34 3.25c.02.08.04.22.04.4a9.3 9.3 0 0 1-.63 3.32 10.49 10.49 0 0 1-1.78 3 8.35 8.35 0 0 1-2.94 2.19c-1.2.56-2.54.84-4 .84a9.1 9.1 0 0 1-5.03-1.47 6.5 6.5 0 0 0 4.88-1.38c-.73 0-1.38-.2-1.94-.62a3.39 3.39 0 0 1-1.13-1.62l.6.03c.29 0 .58-.03.87-.1a3.3 3.3 0 0 1-1.87-1.15c-.5-.6-.75-1.3-.75-2.07v-.06c.45.27.94.42 1.46.44a3.15 3.15 0 0 1-1.46-2.75c0-.58.15-1.14.46-1.66a9.1 9.1 0 0 0 6.75 3.44c-.04-.25-.06-.5-.06-.75 0-.9.32-1.67.94-2.31a3.16 3.16 0 0 1 2.31-.97c.96 0 1.76.34 2.4 1.03.76-.14 1.46-.4 2.1-.78a3.26 3.26 0 0 1-1.44 1.81 7.05 7.05 0 0 0 1.88-.53 7.21 7.21 0 0 1-1.66 1.72Z" fill="#1B3764"/></svg>