<svg width="80" height="80" viewBox="0 0 80 80" fill="none" xmlns="http://www.w3.org/2000/svg"><g clip-path="url(#a)"><path d="M28.6 70.39a5.34 5.34 0 0 0-3.1-1.16c-1.18-.01-2.35.14-3.48.44-1.16.29-2.27.63-3.09.9-.82.29-1.36.5-1.36.5s.53.3 1.37.65c1.05.46 2.15.8 3.28 1 1.27.25 2.59.22 3.85-.09a3.45 3.45 0 0 0 2.54-2.24Zm-3.53-5.13a6.62 6.62 0 0 0 2 2.65c.41.32.9.54 1.41.65.54.11 1.1.06 1.6-.15a5.24 5.24 0 0 0-.83-2.99 9.07 9.07 0 0 0-2-2.17 21.35 21.35 0 0 0-3.12-2.08v.36c0 .23.06.54.13.93.15.97.42 1.9.8 2.8Zm-8.34 2.7a3.7 3.7 0 0 0 2.9-1.47 3.99 3.99 0 0 0-2.49-1.9c-1.13-.3-2.3-.46-3.47-.45h-4.76l.31.33c.2.2.51.47.9.77a13.7 13.7 0 0 0 3 1.88 8.2 8.2 0 0 0 3.61.84Zm2.26-4.56a3.2 3.2 0 0 0 2.72 1.32c.41-1 .44-2.12.07-3.14a9.6 9.6 0 0 0-1.48-2.6 25.17 25.17 0 0 0-1.57-1.9c-.21-.26-.39-.45-.5-.57l-.2-.2s0 .12-.1.32a9.45 9.45 0 0 0-.18 3.79c.16 1.08.58 2.1 1.24 2.98Zm-14.25-8.3c-.82-.26-1.36-.4-1.36-.4l.16.36a19.87 19.87 0 0 0 1.26 2.2c.15.22.3.45.48.69l.13.18.17.22.35.44a7.5 7.5 0 0 0 3.31 2.38 3.48 3.48 0 0 0 3.27-.47c-.26-1.06-.9-2-1.8-2.63-.22-.17-.46-.33-.7-.5l-.76-.48-.8-.47a23.54 23.54 0 0 0-3.7-1.52Zm8.06 2.05a2.91 2.91 0 0 0 2.12 2.08 4.97 4.97 0 0 0 1.07-2.92 13.54 13.54 0 0 0-.85-5.12l-.32-.8-.1-.3-.22.3a14.56 14.56 0 0 0-1.78 4.43 6.95 6.95 0 0 0-.1 1.6c.03.25.1.5.17.73Zm-9.32-6.14a5.43 5.43 0 0 0 1.33 1.14 3.72 3.72 0 0 0 3.19.58 3.38 3.38 0 0 0-.41-2.3 6.74 6.74 0 0 0-.43-.65c-.72-.9-1.59-1.67-2.56-2.27a26.6 26.6 0 0 0-2.68-1.67l-1.26-.68s0 .15.08.4.17.6.32 1a12.94 12.94 0 0 0 2.42 4.45Zm6.25-.41a3 3 0 0 0 1 1.17 4.27 4.27 0 0 0 2-2.47c.08-.25.15-.5.2-.75l.05-.38c0-.12 0-.25.06-.38.06-.5.08-1.02.06-1.53a22.6 22.6 0 0 0-.25-2.6l-.16-.8-.06-.3-.25.25a13.57 13.57 0 0 0-2.23 3.15 7.39 7.39 0 0 0-.77 3.16 3.34 3.34 0 0 0 .35 1.47Zm-8.27-9.05a5.75 5.75 0 0 0 1.07 1.41 3.73 3.73 0 0 0 3 1.15 3.27 3.27 0 0 0 .04-2.32 5.02 5.02 0 0 0-1.14-2.16l-.54-.67c-.18-.23-.38-.45-.57-.67-.8-.86-1.65-1.66-2.26-2.24-.61-.6-1.06-.98-1.06-.98v1.5c.05.5.12 1.02.22 1.53l.19.86c.06.3.15.59.25.87.23.6.5 1.16.8 1.72Zm6.94 1.91a4.7 4.7 0 0 0 2.74-2.67c.12-.23.22-.47.3-.7.16-.47.28-.95.36-1.43.1-.47.2-.93.24-1.35 0-.22 0-.42.06-.6.06-.2 0-.38 0-.55.06-.36.1-.72.1-1.1 0 0-.44.26-1.07.7l-.5.38a10.67 10.67 0 0 0-2.13 2.25l-.22.36-.2.36c-.23.48-.4.99-.51 1.5-.06.26-.09.52-.08.78a2.99 2.99 0 0 0 .92 2.07Zm-4.15-14.37c-.27-.52-.56-1-.84-1.49l-.77-1.24a26.4 26.4 0 0 0-.78-1.2s-.17.57-.35 1.45c-.06.45-.13 1-.17 1.54v1.8c.05.61.15 1.23.3 1.83.16.58.4 1.13.7 1.64a3.6 3.6 0 0 0 2.66 1.78c.15-.23.27-.47.36-.73a3.98 3.98 0 0 0 .13-2.28 8.95 8.95 0 0 0-.5-1.58c-.21-.52-.48-1.06-.74-1.52Zm6.46 4.51c.36-.35.67-.74.92-1.16.28-.4.53-.82.73-1.26.11-.2.2-.42.3-.62l.25-.6c.16-.38.28-.74.4-1.05.22-.6.33-1 .33-1a10.77 10.77 0 0 0-4.4 2.25c-.2.19-.4.38-.57.58-.36.4-.66.85-.9 1.34-.2.46-.3.95-.3 1.45-.01.25.02.5.1.74.08.26.2.5.34.73a4.61 4.61 0 0 0 2.8-1.4Zm-3.51-7.72a3.17 3.17 0 0 0 .62-1.38c0-.24.07-.5.1-.76a7.1 7.1 0 0 0-.1-1.63c-.07-.57-.18-1.14-.32-1.7a32.4 32.4 0 0 0-.9-3c-.28-.78-.46-1.38-.46-1.38l-.2.35c-.12.22-.28.56-.47 1a12.18 12.18 0 0 0-1.17 4.93 6.78 6.78 0 0 0 .26 1.75 3.64 3.64 0 0 0 2.12 2.44 3 3 0 0 0 .53-.62Zm9.48-4.33.16-.24h-.35c-.24 0-.55 0-.93.08s-.83.11-1.3.22c-.25.05-.5.12-.75.2-.25.06-.49.16-.74.26-.5.2-1 .44-1.46.74a6 6 0 0 0-1.19 1 3.86 3.86 0 0 0-.67 1.32c-.06.23-.1.48-.1.73.03.27.08.53.16.79a4.33 4.33 0 0 0 3.06-.55l.62-.4.28-.24.3-.24c.35-.3.69-.63 1-1 .3-.3.57-.64.83-1l.18-.25.17-.23.31-.44c.1-.13.33-.58.42-.75Zm-6.22-3a3.2 3.2 0 0 0 1.2-1 4 4 0 0 0 .66-1.36c.55-2.09.4-4.31.21-6.44-.09-.83-.18-1.39-.18-1.39a5 5 0 0 0-1 1.1 13.2 13.2 0 0 0-1.65 2.78c-.23.55-.42 1.12-.56 1.71a7 7 0 0 0-.14 1.73 3.7 3.7 0 0 0 1.46 2.87Zm8.4-.6a17.37 17.37 0 0 0 1.92-1.63l.57-.57.2-.21a12.57 12.57 0 0 0-4.12-.12c-1.08.12-2.1.5-3 1.12-.4.3-.74.68-1 1.12-.22.45-.33.96-.3 1.46.98.43 2.09.48 3.11.16a9.64 9.64 0 0 0 2.62-1.34Zm-3.19-4.55c.59 0 1.5.06 2.25-.46a6.38 6.38 0 0 0 1.12-1.02c.36-.4.7-.8 1-1.24a28.5 28.5 0 0 0 1.44-2.41c.18-.33.3-.62.4-.82l.07-.17.04-.12-.47.04c-.3.04-.49.06-.8.14-.95.25-1.87.6-2.73 1.08a7.18 7.18 0 0 0-2.52 2.16 3.79 3.79 0 0 0-.6 2.77m36.53 57.04c.45-.36.97-.65 1.51-.86a5.34 5.34 0 0 1 1.6-.3 13.1 13.1 0 0 1 3.47.44 39.64 39.64 0 0 1 4.45 1.4s-.53.3-1.37.65c-1.05.46-2.15.8-3.28 1a8.95 8.95 0 0 1-3.85-.09 3.45 3.45 0 0 1-2.54-2.24Zm3.53-5.13a6.62 6.62 0 0 1-2 2.65c-.41.32-.9.54-1.42.65-.53.11-1.08.06-1.58-.15a5.2 5.2 0 0 1 .82-2.99 9.07 9.07 0 0 1 2-2.17c.67-.54 1.38-1.05 2.12-1.5.6-.37 1-.58 1-.58v.36c0 .23-.06.54-.13.93-.15.97-.42 1.9-.8 2.8Zm8.34 2.7a3.7 3.7 0 0 1-2.91-1.47 4 4 0 0 1 2.5-1.9c1.13-.3 2.3-.46 3.47-.45h4.75s-.1.13-.3.33c-.2.2-.51.47-.9.77a13.7 13.7 0 0 1-3 1.88 8.13 8.13 0 0 1-3.61.84Zm-2.26-4.56a3.2 3.2 0 0 1-2.72 1.32c-.41-1-.44-2.12-.07-3.14a9.6 9.6 0 0 1 1.48-2.6 25.2 25.2 0 0 1 1.57-1.9c.2-.26.39-.45.5-.57l.2-.2s0 .12.1.32a9.45 9.45 0 0 1 .18 3.79 6.52 6.52 0 0 1-1.24 2.98Zm14.25-8.3c.82-.26 1.36-.4 1.36-.4l-.16.36a19.87 19.87 0 0 1-1.26 2.2c-.15.22-.3.45-.48.69l-.13.18-.17.22-.35.44a7.5 7.5 0 0 1-3.32 2.38 3.48 3.48 0 0 1-3.26-.47c.26-1.06.9-2 1.8-2.63.22-.17.46-.33.7-.5l.75-.48.81-.47.77-.38c.96-.45 1.94-.83 2.94-1.14Zm-8.06 2.05a2.91 2.91 0 0 1-2.12 2.08 4.97 4.97 0 0 1-1.07-2.92 13.55 13.55 0 0 1 .85-5.12l.32-.8.1-.3.22.3a14.56 14.56 0 0 1 1.78 4.43 6.95 6.95 0 0 1 .1 1.6c-.03.25-.1.5-.17.73Zm9.32-6.14a5.43 5.43 0 0 1-1.33 1.14 3.72 3.72 0 0 1-3.19.58 3.38 3.38 0 0 1 .41-2.3c.13-.22.28-.44.43-.65.72-.9 1.59-1.67 2.56-2.27a26.6 26.6 0 0 1 2.68-1.67l1.26-.68s0 .15-.08.4-.17.6-.32 1a12.94 12.94 0 0 1-2.42 4.45Zm-6.25-.41a3 3 0 0 1-1 1.17 4.27 4.27 0 0 1-2-2.47c-.08-.25-.15-.5-.2-.75l-.05-.38c0-.12 0-.25-.06-.38a9.92 9.92 0 0 1-.06-1.53c.03-.87.11-1.73.25-2.6l.16-.8.06-.3.25.25a13.57 13.57 0 0 1 2.23 3.15c.48.98.75 2.06.76 3.16a3.34 3.34 0 0 1-.35 1.47Zm8.27-9.05a5.76 5.76 0 0 1-1.07 1.41 3.73 3.73 0 0 1-3 1.15 3.27 3.27 0 0 1-.04-2.32 5.01 5.01 0 0 1 1.14-2.16l.54-.67c.18-.23.38-.45.57-.67.8-.86 1.65-1.66 2.26-2.24.61-.6 1.06-.98 1.06-.98v1.5c-.05.5-.12 1.02-.22 1.53l-.19.86c-.06.3-.15.59-.25.87-.23.6-.5 1.16-.8 1.72Zm-6.94 1.91a4.7 4.7 0 0 1-2.74-2.67 6.26 6.26 0 0 1-.3-.7 9.32 9.32 0 0 1-.36-1.43c-.1-.47-.2-.93-.24-1.35 0-.22 0-.42-.06-.6-.06-.2 0-.38 0-.55a9.26 9.26 0 0 1-.1-1.1s.44.26 1.07.7l.5.38a10.67 10.67 0 0 1 2.13 2.25l.22.36.2.36c.23.48.4.99.51 1.5.06.26.09.52.08.78a2.99 2.99 0 0 1-.92 2.07Zm4.15-14.37c.27-.52.56-1 .84-1.49l.77-1.24c.45-.73.78-1.2.78-1.2s.17.57.35 1.45c.06.45.13 1 .17 1.54v1.8c-.05.61-.15 1.23-.3 1.83-.16.58-.4 1.13-.7 1.64a3.6 3.6 0 0 1-2.66 1.78 3.27 3.27 0 0 1-.36-.73 3.97 3.97 0 0 1-.13-2.28c.12-.54.28-1.07.5-1.58.21-.52.48-1.06.74-1.52Zm-6.47 4.51a5.92 5.92 0 0 1-.91-1.16c-.29-.4-.53-.82-.73-1.26-.11-.2-.2-.42-.3-.62l-.25-.6c-.16-.38-.28-.74-.4-1.05-.22-.6-.33-1-.33-1a10.77 10.77 0 0 1 4.4 2.25c.2.19.4.38.57.58.36.4.66.85.9 1.34.2.46.3.95.3 1.45.01.25-.02.5-.1.74-.08.26-.2.5-.34.73a4.61 4.61 0 0 1-2.8-1.4Zm3.52-7.72a3.17 3.17 0 0 1-.62-1.38c0-.24-.07-.5-.1-.76a14.64 14.64 0 0 1 .42-3.33c.3-1.14.6-2.2.9-3 .28-.78.46-1.38.46-1.38a8.58 8.58 0 0 0 .67 1.35 12.18 12.18 0 0 1 1.17 4.93 6.77 6.77 0 0 1-.26 1.75 3.8 3.8 0 0 1-.76 1.44c-.36.44-.83.78-1.36 1a3 3 0 0 1-.53-.62Zm-9.48-4.33-.16-.24h.35c.24 0 .55 0 .93.08s.83.11 1.3.22c.25.05.5.12.75.2.25.06.49.16.74.26.5.2 1 .44 1.46.74a6 6 0 0 1 1.18 1c.17.19.3.4.41.62a3.7 3.7 0 0 1 .36 1.43c-.02.27-.07.53-.15.79a4.33 4.33 0 0 1-3.06-.55 8.28 8.28 0 0 1-.62-.4l-.28-.24-.3-.24c-.35-.3-.69-.63-1-1-.3-.3-.57-.64-.83-1l-.18-.25-.17-.23-.31-.44c-.1-.13-.33-.58-.42-.75Zm6.22-3a3.2 3.2 0 0 1-1.2-1 4 4 0 0 1-.66-1.36c-.55-2.09-.4-4.31-.21-6.44.09-.83.18-1.39.18-1.39a5 5 0 0 1 1 1.1 13.19 13.19 0 0 1 1.64 2.78 7 7 0 0 1 .71 3.45 3.7 3.7 0 0 1-1.46 2.86Zm-8.4-.6a17.36 17.36 0 0 1-1.92-1.63l-.57-.57-.2-.21a12.56 12.56 0 0 1 4.12-.12c1.08.12 2.1.5 3 1.12.4.3.74.68 1 1.12.22.45.33.96.3 1.46-.98.43-2.09.48-3.11.16a9.64 9.64 0 0 1-2.62-1.34Zm3.19-4.55c-.59 0-1.5.06-2.25-.46a6.4 6.4 0 0 1-1.12-1.02c-.36-.4-.7-.8-1-1.24a28.47 28.47 0 0 1-1.44-2.41c-.18-.33-.3-.62-.4-.82l-.07-.17-.04-.12.47.04c.3.04.49.06.8.14.95.25 1.87.6 2.73 1.08a7.2 7.2 0 0 1 2.52 2.16 3.79 3.79 0 0 1 .6 2.77" fill="#C4A386"/><g clip-path="url(#b)"><path fill-rule="evenodd" clip-rule="evenodd" d="M36.38 26.47a12.19 12.19 0 0 0-8.35 12.17 12 12 0 0 0 7.58 10.43c2.17.83 5.52.95 7.77.27 8.9-2.69 11.59-13.91 4.84-20.18a11 11 0 0 0-8.27-3.16c-1.35 0-2.66.18-3.57.47Zm5.11 1.19 1.45 1.42-4.5 4.47-4.5 4.47 2.97 2.94 2.97 2.95 3.06-3.03 3.07-3.02-.8-.78-.78-.79-1.5 1.48-1.5 1.48-1.43-1.42-1.43-1.43 2.93-2.9 2.93-2.92 3.68 3.66 3.68 3.65-5.93 5.9-5.92 5.89-5.9-5.87-5.9-5.87 5.81-5.85c3.2-3.22 5.88-5.86 5.96-5.86.07 0 .79.64 1.58 1.43Z" fill="#C4A386"/></g></g><defs><clipPath id="a"><path fill="#fff" d="M0 0h80v80h-80z"/></clipPath><clipPath id="b"><path fill="#fff" transform="translate(28 26)" d="M0 0h24v24h-24z"/></clipPath></defs></svg>