<svg xmlns="http://www.w3.org/2000/svg" width="612" height="612" viewBox="0 0 612 612" style="enable-background:new 0 0 612 612" xml:space="preserve"><path d="M489.6 81.6h-367.2c-67.48 0-122.4 54.92-122.4 122.4v204c0 67.48 54.92 122.4 122.4 122.4h367.2c67.48 0 122.4-54.92 122.4-122.4v-204c0-67.48-54.92-122.4-122.4-122.4zm95.2 326.4c0 52.5-42.7 95.2-95.2 95.2h-367.2c-52.5 0-95.2-42.7-95.2-95.2v-204c0-52.5 42.7-95.2 95.2-95.2h367.2c52.5 0 95.2 42.7 95.2 95.2v204zm-367.2 13.07 199.3-115.06-199.3-115.08v230.14zm27.2-183.03 117.7 67.97-117.7 67.95v-135.92z"/></svg>