<svg height="32" version="1.0" viewBox="0 0 32 32" width="32" xml:space="preserve" xmlns="http://www.w3.org/2000/svg"><path d="M31.75 14.54v13.83c0 2-1.63 3.63-3.63 3.63h-24.23c-2 0-3.64-1.63-3.64-3.63v-24.74c0-2 1.63-3.63 3.64-3.63h13.32a1.21 1.21 0 0 1 0 2.42h-13.32c-.67 0-1.22.55-1.22 1.21v24.74c0 .66.55 1.2 1.22 1.2h24.23c.66 0 1.2-.54 1.2-1.2v-13.83a1.21 1.21 0 1 1 2.43 0zm-1.21-14.54h-8.57a1.21 1.21 0 1 0 0 2.42h5.64l-13.7 13.7a1.21 1.21 0 0 0 1.7 1.72l13.72-13.7v5.64a1.21 1.21 0 1 0 2.42 0v-8.57a1.2 1.2 0 0 0-1.21-1.21z"/></svg>