<?xml version="1.0" ?>
<!DOCTYPE svg  PUBLIC '-//W3C//DTD SVG 1.1//EN'  'http://www.w3.org/Graphics/SVG/1.1/DTD/svg11.dtd'>
<!-- Uploaded to: SVG Repo, www.svgrepo.com, Generator: SVG Repo Mixer Tools -->
<svg width="800px" height="800px" viewBox="0 0 70.867 70.867" enable-background="new 0 0 70.866 70.867" id="圖層_1" version="1.1" xml:space="preserve" xmlns="http://www.w3.org/2000/svg" xmlns:xlink="http://www.w3.org/1999/xlink">
<g>
<g>
<polygon fill="#FFFFFF" points="    47.504,42.074 55.921,32.969 55.921,51.815 39.37,46.911   " stroke="#00A0E9" stroke-linejoin="round" stroke-miterlimit="10" stroke-width="3"/>
<polygon fill="#FFFFFF" points="39.37,46.911     39.08,46.826 23.358,46.826 14.945,41.25 14.945,13.674 55.921,13.674 55.921,32.969 47.504,42.074   " stroke="#00A0E9" stroke-linejoin="round" stroke-miterlimit="10" stroke-width="3"/>
<polygon fill="#FFFFFF" points="39.37,46.911     55.921,51.815 55.921,57.192 30.579,57.192 33.991,50.109   " stroke="#00A0E9" stroke-linejoin="round" stroke-miterlimit="10" stroke-width="3"/>
<polygon fill="#FFFFFF" points="14.945,41.25     23.358,46.826 39.08,46.826 39.37,46.911 33.991,50.109 30.579,57.192 14.945,57.192   " stroke="#00A0E9" stroke-linejoin="round" stroke-miterlimit="10" stroke-width="3"/>
</g>
<path d="M50.799,65.434H20.067   c-2.829,0-5.122-2.294-5.122-5.123v-3.118h40.976v3.118C55.921,63.14,53.628,65.434,50.799,65.434z" fill="#FFFFFF" stroke="#00A0E9" stroke-linejoin="round" stroke-miterlimit="10" stroke-width="3"/>
<path d="M55.921,10.555v3.119   H14.945v-3.119c0-2.828,2.293-5.121,5.122-5.121h30.731C53.628,5.434,55.921,7.727,55.921,10.555z" fill="#FFFFFF" stroke="#00A0E9" stroke-linejoin="round" stroke-miterlimit="10" stroke-width="3"/>
<path d="M27.612,27.485   c0,4.319,7.82,13.435,7.82,13.435s7.82-9.115,7.82-13.435s-3.501-7.82-7.82-7.82C31.114,19.665,27.612,23.166,27.612,27.485z" fill="#FFFFFF" stroke="#00A0E9" stroke-linejoin="round" stroke-miterlimit="10" stroke-width="3"/>
<circle cx="35.433" cy="27.693" fill="#FFFFFF" r="3.776" stroke="#00A0E9" stroke-linejoin="round" stroke-miterlimit="10" stroke-width="3"/>
<line fill="#FFFFFF" stroke="#00A0E9" stroke-linejoin="round" stroke-miterlimit="10" stroke-width="3" x1="38.887" x2="31.979" y1="9.553" y2="9.553"/>
<line fill="none" stroke="#00A0E9" stroke-linejoin="round" stroke-miterlimit="10" stroke-width="3" x1="37.535" x2="33.331" y1="61.313" y2="61.313"/>
</g>
</svg>