<svg width="88" height="24" viewBox="0 0 88 24" fill="none" xmlns="http://www.w3.org/2000/svg"><path d="M6.7 22.52v-.4c-1.56 0-1.56-1.58-1.56-3.96v-12.32c0-2.38 0-3.97 1.56-3.97v-.39h-6.7v.4c1.55 0 1.55 1.58 1.55 3.96v12.32c0 2.38 0 3.97-1.55 3.97v.39h6.7Zm1.45-21.04v.4c1.55 0 1.55 1.58 1.55 3.96v12.32c0 2.38 0 3.97-1.55 3.97v.39h6.7v-.4c-1.56 0-1.56-1.58-1.56-3.96v-9.17l10.97 13.53h4.07v-.4c-1.56 0-1.56-1.58-1.56-3.96v-12.32c0-2.38 0-3.97 1.56-3.97v-.39h-6.7v.4c1.4 0 1.55 1.31 1.55 3.36v10.4l-11.36-14.16h-3.67Zm21.95 0v4.93h.4c0-1.56 1.58-1.56 3.94-1.56h2.46v13.31c0 2.38 0 3.97-1.53 3.97v.39h6.67v-.4c-1.56 0-1.56-1.58-1.56-3.96v-13.31h2.51c2.37 0 3.95 0 3.95 1.56h.39v-4.93h-17.22Zm19.04 0v.4c1.55 0 1.55 1.58 1.55 3.96v12.32c0 2.38 0 3.97-1.55 3.97v.39h15.1l.44-4.93h-.42c0 1.56-2 1.56-4.36 1.56h-5.62v-14.3h5.62c2.36 0 3.94 0 3.94 1.56h.4v-4.93h-15.1Zm10.73 13.89c.24-1.66 1.4-3.22 2.96-3.22v-.39c-1.56 0-2.72-1.53-2.96-3.22h-.39c-.2 1.69-1.4 3.22-2.93 3.22v.39c1.52 0 2.72 1.56 2.93 3.22h.39Zm28.13-3.37c0-7.33-5.38-11-10.76-11-5.41 0-10.8 3.67-10.8 11s5.39 11 10.8 11c5.38 0 10.76-3.67 10.76-11Zm-3.5 0c0 4.93-3.65 7.36-7.26 7.36-3.65 0-7.27-2.43-7.27-7.36s3.62-7.36 7.27-7.36c3.61 0 7.26 2.43 7.26 7.36Zm-7 3.3c.25-1.68 1.41-3.21 2.97-3.21v-.42c-1.56 0-2.72-1.53-2.96-3.22h-.4c-.2 1.69-1.4 3.22-2.92 3.22v.42c1.52 0 2.72 1.53 2.93 3.22h.39Z" fill="#2C2C2C"/><path d="M59.87 15.37c.24-1.66 1.4-3.22 2.96-3.22v-.4c-1.56 0-2.72-1.52-2.96-3.2h-.39c-.2 1.68-1.4 3.2-2.93 3.2v.4c1.53 0 2.72 1.56 2.93 3.22h.39Zm17.63-.07c.25-1.68 1.41-3.21 2.97-3.21v-.42c-1.56 0-2.72-1.53-2.96-3.22h-.4c-.2 1.69-1.4 3.22-2.92 3.22v.42c1.52 0 2.72 1.53 2.93 3.22h.39Z" fill="#996830"/></svg>