<svg width="800" height="800" viewBox="0 0 24 24" fill="none" xmlns="http://www.w3.org/2000/svg"><path d="M2 18c0 1.89 0 2.83.59 3.41.58.59 1.52.59 3.41.59 1.89 0 2.83 0 3.41-.59.59-.58.59-1.52.59-3.41v-12c0-1.89 0-2.83-.59-3.41-.58-.59-1.52-.59-3.41-.59-1.89 0-2.83 0-3.41.59-.59.58-.59 1.52-.59 3.41v8m20-8c0-1.89 0-2.83-.59-3.41-.58-.59-1.52-.59-3.41-.59-1.89 0-2.83 0-3.41.59-.59.58-.59 1.52-.59 3.41v12c0 1.89 0 2.83.59 3.41.58.59 1.52.59 3.41.59 1.89 0 2.83 0 3.41-.59.59-.58.59-1.52.59-3.41v-8" stroke="#1C274C" stroke-width="1.5" stroke-linecap="round"/></svg>