<svg width="17" height="17" viewBox="0 0 17 17" fill="none" xmlns="http://www.w3.org/2000/svg">
<path d="M15.2344 13.1711V15.4647C15.2352 15.6776 15.1916 15.8884 15.1061 16.0835C15.0206 16.2786 14.8953 16.4537 14.7381 16.5976C14.5809 16.7416 14.3953 16.8512 14.1932 16.9194C13.9911 16.9876 13.777 17.0129 13.5645 16.9937C11.2075 16.7381 8.94334 15.9342 6.95408 14.6467C5.10332 13.4729 3.53421 11.9068 2.35816 10.0595C1.06363 8.06506 0.258013 5.79427 0.00658349 3.43114C-0.0125581 3.21972 0.0126156 3.00664 0.0805014 2.80547C0.148387 2.6043 0.257498 2.41944 0.400887 2.26266C0.544276 2.10588 0.718801 1.98062 0.913351 1.89485C1.1079 1.80908 1.31821 1.76468 1.5309 1.76448H3.82885C4.20059 1.76083 4.56098 1.89221 4.84284 2.13415C5.1247 2.37609 5.3088 2.71206 5.36082 3.07946C5.45782 3.81345 5.63769 4.53413 5.89702 5.22776C6.00007 5.5014 6.02238 5.79879 5.96129 6.0847C5.90019 6.3706 5.75827 6.63304 5.55232 6.8409L4.57952 7.81184C5.66994 9.72586 7.25775 11.3106 9.17544 12.399L10.1482 11.428C10.3565 11.2225 10.6194 11.0808 10.9059 11.0198C11.1923 10.9589 11.4903 10.9811 11.7645 11.084C12.4594 11.3428 13.1815 11.5224 13.9169 11.6192C14.289 11.6716 14.6288 11.8586 14.8717 12.1448C15.1146 12.4309 15.2437 12.7962 15.2344 13.1711Z" fill="#E2001A"/>
<path d="M9.91086 4.05809C10.659 4.20378 11.3466 4.56898 11.8856 5.10696C12.4246 5.64494 12.7905 6.33121 12.9365 7.07795M9.91086 1C11.4653 1.17235 12.9147 1.8671 14.0213 2.97018C15.1279 4.07325 15.8258 5.51909 16.0004 7.0703" stroke="#E2001A" stroke-width="2" stroke-linecap="round" stroke-linejoin="round"/>
</svg>
