<?xml version="1.0" encoding="utf-8"?><svg xmlns="http://www.w3.org/2000/svg" xmlns:xlink="http://www.w3.org/1999/xlink"><symbol viewBox="0 0 14 13" id="cat" xmlns="http://www.w3.org/2000/svg"><path class="acat" fill="#303030" d="M12.9 6.9c0 2.5-2.6 4.7-5.7 4.7S1.4 9.4 1.4 6.9c0-1 .3-1.9 1-2.7.6-.7 1.5-1.3 2.5-1.6.7-.2 1.5-.3 2.3-.3 3.1-.1 5.7 2 5.7 4.6z"/><path class="aear1" fill="#303030" d="M11.6.8c.4 1.1.3 2.3 0 3.4L9.1 2.8c1.1-1.1 2-1.9 2.5-2z"/><path class="aear" fill="#303030" d="M2.5 1c.9.4 1.7 1.1 2.4 1.9L2.5 4.4C2 3.2 1.9 2 2.5 1z"/><ellipse class="aeye" fill="#FFF" cx="9.2" cy="6.6" rx="1.1" ry=".8"/><ellipse class="aeye" fill="#FFF" cx="4.8" cy="6.6" rx="1.1" ry=".8"/><ellipse class="apupils" fill="#303030" cx="4.8" cy="6.65" rx=".2" ry=".5"/><ellipse class="apupils" fill="#303030" cx="9.2" cy="6.65" rx=".2" ry=".5"/><path class="amoustache" stroke="#303030" stroke-width=".25" stroke-miterlimit="10" d="m13.8 8.1-1.1-.2m1.2 2-1.8-.8m1.1 2.5L11 10.1M.3 8.1l1.3-.2M.1 9.8l2-.8M.9 11.5l2.3-1.4"/></symbol><symbol viewBox="0 0 64 64" id="logo" xmlns="http://www.w3.org/2000/svg"><circle fill="#050818" cx="32" cy="32" r="32"/><path fill="#fff" d="M7.75 32.98v-1.99l9.01-5.92v3.41l-5.44 3.43v.16l5.44 3.43v3.43l-9.01-5.95zm12.06 10.1v-2.81h11.34v2.81H19.81zm14.4 0 7.41-22.16h3.04l-7.41 22.16h-3.04zm13.03-7.58 5.44-3.43v-.16l-5.44-3.43v-3.41l9.01 5.9v1.99l-9.01 5.97V35.5z"/></symbol><symbol id="vk-video-sign-logo" viewBox="0 0 1000 1000" style="enable-background:new 0 0 1000 1000" xml:space="preserve" xmlns="http://www.w3.org/2000/svg"><style>.st0{clip-path:url(#SVGID_00000013875050395803348400000010150922330667850647_)}</style><defs><path id="cSVGID_1_" d="M.5.4h1000v1000H.5z"/></defs><clipPath id="cSVGID_00000031173751991635300200000013637716575902321064_"><use xlink:href="#cSVGID_1_" style="overflow:visible"/></clipPath><g style="clip-path:url(#cSVGID_00000031173751991635300200000013637716575902321064_)"><path d="M.5 366C.5 65 65 .4 366.1.4h268.8c301 0 365.6 64.5 365.6 365.6v268.8c0 301-64.5 365.6-365.6 365.6H366.1C65.1 1000.4.5 935.9.5 634.8V366z" style="fill:#07f"/><path d="M537.8 1000.4h95.3c295.4 0 364.2-61.5 367.2-344.8l.1-20.8V366c0-7.6 0-15-.1-22.4C997 61.7 928 .4 633.1.4h-95.3C235.3.4 170.5 65 170.5 366v268.8c0 301 64.8 365.6 367.3 365.6" style="fill:#ff2b42"/><path d="M706.1 413.9c50.5 29.2 75.8 43.8 84.3 62.8 7.4 16.6 7.4 35.6 0 52.2-8.5 19-33.8 33.6-84.3 62.8l-138.5 80C517 701 491.7 715.5 471 713.4a64 64 0 0 1-45.2-26.1c-12.2-16.9-12.2-46-12.2-104.4v-160c0-58.3 0-87.5 12.2-104.4a64.2 64.2 0 0 1 45.2-26.1c20.8-2.2 46 12.4 96.6 41.6l138.5 79.9z" style="fill:#fff"/></g></symbol></svg>