<svg xmlns="http://www.w3.org/2000/svg" xmlns:xlink="http://www.w3.org/1999/xlink"><symbol viewBox="0 0 14 13" id="cat" xmlns="http://www.w3.org/2000/svg"><path class="cat" fill="#303030" d="M12.9 6.9c0 2.5-2.6 4.7-5.7 4.7S1.4 9.4 1.4 6.9c0-1 .3-1.9 1-2.7.6-.7 1.5-1.3 2.5-1.6.7-.2 1.5-.3 2.3-.3 3.1-.1 5.7 2 5.7 4.6z"/><path class="ear1" fill="#303030" d="M11.6.8c.4 1.1.3 2.3 0 3.4L9.1 2.8c1.1-1.1 2-1.9 2.5-2z"/><path class="ear" fill="#303030" d="M2.5 1c.9.4 1.7 1.1 2.4 1.9L2.5 4.4C2 3.2 1.9 2 2.5 1z"/><ellipse class="eye" fill="#FFF" cx="9.2" cy="6.6" rx="1.1" ry=".8"/><ellipse class="eye" fill="#FFF" cx="4.8" cy="6.6" rx="1.1" ry=".8"/><ellipse class="pupils" fill="#303030" cx="4.8" cy="6.65" rx=".2" ry=".5"/><ellipse class="pupils" fill="#303030" cx="9.2" cy="6.65" rx=".2" ry=".5"/><path class="moustache" stroke="#303030" stroke-width=".25" stroke-miterlimit="10" d="m13.8 8.1-1.1-.2m1.2 2-1.8-.8m1.1 2.5L11 10.1M.3 8.1l1.3-.2M.1 9.8l2-.8M.9 11.5l2.3-1.4"/></symbol><symbol viewBox="0 0 256 256" id="clock" xmlns="http://www.w3.org/2000/svg"><circle class="circle" cx="128" cy="128" r="88"/><path d="M136 120V72a8 8 0 0 0-16 0v56a8 8 0 0 0 8 8h56a8 8 0 0 0 0-16Z"/><path d="M128 32a96 96 0 1 0 67.882 28.118A95.37 95.37 0 0 0 128 32Zm56.568 152.568A80 80 0 1 1 71.432 71.432a80 80 0 1 1 113.136 113.136ZM235.48 54.46l-33.94-33.94a8 8 0 0 0-11.314 11.314l33.94 33.94a8 8 0 1 0 11.315-11.313ZM65.774 20.52a8 8 0 0 0-11.313 0L20.52 54.46a8 8 0 0 0 11.314 11.314l33.94-33.94a8 8 0 0 0 0-11.314Z"/></symbol><symbol fill="none" viewBox="0 0 28 24" id="telegram" xmlns="http://www.w3.org/2000/svg"><path d="M27.9202 2.18436L23.6948 22.5513C23.3757 23.9885 22.5446 24.3463 21.3635 23.6696L14.9248 18.8203L11.8185 21.8746C11.4745 22.2263 11.1874 22.5196 10.5244 22.5196L10.9874 15.8182L22.9197 4.79808C23.4387 4.32583 22.8067 4.06313 22.1136 4.5364L7.36202 14.0304L1.01134 11.9983C-0.369802 11.5578 -0.394804 10.5867 1.29938 9.90898L26.139 0.127734C27.2891 -0.312826 28.2952 0.389412 27.9202 2.18538V2.18436Z" fill="#333333"/>
</symbol></svg>
