<?xml version="1.0" encoding="utf-8"?><svg viewBox="0 0 800 800" xmlns="http://www.w3.org/2000/svg" xmlns:xlink="http://www.w3.org/1999/xlink"><style>:root>svg{display:none}:root>svg:target{display:block}</style><svg viewBox="0 0 14 13" id="cat" xmlns="http://www.w3.org/2000/svg"><path class="cat" fill="#303030" d="M12.9 6.9c0 2.5-2.6 4.7-5.7 4.7S1.4 9.4 1.4 6.9c0-1 .3-1.9 1-2.7.6-.7 1.5-1.3 2.5-1.6.7-.2 1.5-.3 2.3-.3 3.1-.1 5.7 2 5.7 4.6z"/><path class="ear1" fill="#303030" d="M11.6.8c.4 1.1.3 2.3 0 3.4L9.1 2.8c1.1-1.1 2-1.9 2.5-2z"/><path class="ear" fill="#303030" d="M2.5 1c.9.4 1.7 1.1 2.4 1.9L2.5 4.4C2 3.2 1.9 2 2.5 1z"/><ellipse class="eye" fill="#FFF" cx="9.2" cy="6.6" rx="1.1" ry=".8"/><ellipse class="eye" fill="#FFF" cx="4.8" cy="6.6" rx="1.1" ry=".8"/><ellipse class="pupils" fill="#303030" cx="4.8" cy="6.65" rx=".2" ry=".5"/><ellipse class="pupils" fill="#303030" cx="9.2" cy="6.65" rx=".2" ry=".5"/><path class="moustache" stroke="#303030" stroke-width=".25" stroke-miterlimit="10" d="m13.8 8.1-1.1-.2m1.2 2-1.8-.8m1.1 2.5L11 10.1M.3 8.1l1.3-.2M.1 9.8l2-.8M.9 11.5l2.3-1.4"/></svg><svg viewBox="0 0 256 256" id="clock" xmlns="http://www.w3.org/2000/svg"><circle class="circle" cx="128" cy="128" r="88"/><path d="M136 120V72a8 8 0 0 0-16 0v56a8 8 0 0 0 8 8h56a8 8 0 0 0 0-16Z"/><path d="M128 32a96 96 0 1 0 67.882 28.118A95.37 95.37 0 0 0 128 32Zm56.568 152.568A80 80 0 1 1 71.432 71.432a80 80 0 1 1 113.136 113.136ZM235.48 54.46l-33.94-33.94a8 8 0 0 0-11.314 11.314l33.94 33.94a8 8 0 1 0 11.315-11.313ZM65.774 20.52a8 8 0 0 0-11.313 0L20.52 54.46a8 8 0 0 0 11.314 11.314l33.94-33.94a8 8 0 0 0 0-11.314Z"/></svg><svg fill="none" viewBox="0 0 28 24" id="telegram" xmlns="http://www.w3.org/2000/svg"><path d="m27.92 2.184-4.225 20.367c-.32 1.438-1.15 1.795-2.332 1.119l-6.438-4.85-3.107 3.055c-.343.351-.63.645-1.294.645l.463-6.702L22.92 4.798c.519-.472-.113-.735-.806-.262L7.362 14.03l-6.35-2.032c-1.382-.44-1.407-1.411.287-2.089L26.14.128c1.15-.44 2.156.261 1.781 2.057Z" fill="#333"/></svg></svg>