<?xml version="1.0" encoding="utf-8"?>
<!-- Generator: Adobe Illustrator 28.0.0, SVG Export Plug-In . SVG Version: 6.00 Build 0)  -->
<svg version="1.1" id="Слой_1" xmlns="http://www.w3.org/2000/svg" xmlns:xlink="http://www.w3.org/1999/xlink" x="0px" y="0px"
	 viewBox="0 0 1000 1000" style="enable-background:new 0 0 1000 1000;" xml:space="preserve">
<style type="text/css">
	.st0{clip-path:url(#SVGID_00000013875050395803348400000010150922330667850647_);}
	.st1{fill:#0077FF;}
	.st2{fill:#FF2B42;}
	.st3{fill:#FFFFFF;}
</style>
<g>
	<defs>
		<rect id="SVGID_1_" x="0.5" y="0.4" width="1000" height="1000"/>
	</defs>
	<clipPath id="SVGID_00000031173751991635300200000013637716575902321064_">
		<use xlink:href="#SVGID_1_"  style="overflow:visible;"/>
	</clipPath>
	<g style="clip-path:url(#SVGID_00000031173751991635300200000013637716575902321064_);">
		<path class="st1" d="M0.5,366C0.5,65,65,0.4,366.1,0.4h268.8c301,0,365.6,64.5,365.6,365.6v268.8c0,301-64.5,365.6-365.6,365.6
			H366.1c-301,0-365.6-64.5-365.6-365.6V366z"/>
		<path class="st2" d="M537.8,1000.4h95.3c295.4,0,364.2-61.5,367.2-344.8l0.1-20.8V366c0-7.6,0-15-0.1-22.4
			C997,61.7,928,0.4,633.1,0.4h-95.3C235.3,0.4,170.5,65,170.5,366v268.8C170.5,935.8,235.3,1000.4,537.8,1000.4"/>
		<path class="st3" d="M706.1,413.9c50.5,29.2,75.8,43.8,84.3,62.8c7.4,16.6,7.4,35.6,0,52.2c-8.5,19-33.8,33.6-84.3,62.8l-138.5,80
			C517,701,491.7,715.5,471,713.4c-18.1-1.9-34.6-11.4-45.2-26.1c-12.2-16.9-12.2-46-12.2-104.4v-160c0-58.3,0-87.5,12.2-104.4
			c10.7-14.7,27.1-24.2,45.2-26.1c20.8-2.2,46,12.4,96.6,41.6L706.1,413.9z"/>
	</g>
</g>
</svg>
