<svg width="7" height="5" viewBox="0 0 7 5" fill="none" xmlns="http://www.w3.org/2000/svg">
<path d="M3.41055 -0.000152895C3.54689 0.00390071 3.67617 0.0613355 3.77054 0.15982L6.77054 3.15982C6.86642 3.25711 6.92017 3.38824 6.92017 3.52484C6.92017 3.66144 6.86642 3.79254 6.77054 3.88983C6.72289 3.94006 6.66551 3.98008 6.6019 4.00742C6.53829 4.03475 6.46978 4.04883 6.40054 4.04883C6.33131 4.04883 6.2628 4.03475 6.19919 4.00742C6.13558 3.98008 6.0782 3.94006 6.03055 3.88983L3.44055 1.29983L0.840546 3.88983C0.740525 3.96814 0.615291 4.00714 0.488495 3.99945C0.361699 3.99176 0.242105 3.93791 0.152283 3.84808C0.06246 3.75826 0.00863651 3.63867 0.000946092 3.51187C-0.00674433 3.38508 0.0322266 3.25984 0.110535 3.15982L3.11054 0.15982C3.18978 0.0743777 3.29545 0.018058 3.41055 -0.000152895Z" fill="black" fill-opacity="0.4"/>
</svg>
