<svg width="7" height="5" viewBox="0 0 7 5" fill="none" xmlns="http://www.w3.org/2000/svg">
<path d="M3.50961 4.04898C3.37327 4.04493 3.244 3.98749 3.14963 3.88901L0.149628 0.889008C0.0537472 0.791716 0 0.660584 0 0.523987C0 0.38739 0.0537472 0.256288 0.149628 0.158997C0.197278 0.108766 0.254656 0.0687483 0.318268 0.0414124C0.381879 0.0140764 0.450387 0 0.519623 0C0.588859 0 0.657366 0.0140764 0.720978 0.0414124C0.784589 0.0687483 0.841967 0.108766 0.889618 0.158997L3.47961 2.74899L6.07962 0.158997C6.17964 0.0806886 6.30488 0.0416868 6.43167 0.0493774C6.55847 0.0570681 6.67806 0.110922 6.76788 0.200745C6.85771 0.290567 6.91153 0.410161 6.91922 0.536957C6.92691 0.663752 6.88794 0.788987 6.80963 0.889008L3.80963 3.88901C3.73038 3.97445 3.62472 4.03077 3.50961 4.04898Z" fill="black" fill-opacity="0.4"/>
</svg>
