<svg width="16" height="16" viewBox="0 0 16 16" fill="none" xmlns="http://www.w3.org/2000/svg"><path fill-rule="evenodd" clip-rule="evenodd" d="M1.62 1.62a.96.96 0 0 1 .68-.29h11.4c.24 0 .34.03.4.06a1 1 0 0 1 .28.23c.21.2.29.43.29.68V13.7a.96.96 0 0 1-.97.96H2.3a.96.96 0 0 1-.97-.96V2.3c0-.26.1-.5.29-.68Zm14.22 12.92A2.3 2.3 0 0 1 13.7 16H2.3A2.3 2.3 0 0 1 0 13.7V2.3A2.3 2.3 0 0 1 1.46.16c.11-.1.27-.16.43-.16H13.7c.34 0 .65.04.94.17.28.12.5.31.69.5.48.48.67 1.06.67 1.63v11.8c0 .18-.06.33-.16.44Z" fill="#2D3440"/></svg>
