<svg xmlns="http://www.w3.org/2000/svg" xml:space="preserve" x="0px" y="0px" viewBox="0 0 1280 215.9" fill="#ffffff"><path d="M577.2 209.5c4.5-2.3 5.3-4.7 4.5-13.6-.7-7.3-.5-8.2 1.8-12.2 1.4-2.4 3.3-4.9 4.1-5.7 4.1-3.3.7-2.6-7.5 1.6-11.3 5.8-14.1 9.5-14.7 19-.4 6-.3 6.5 2.6 9.4 3.4 3.4 5 3.7 9.2 1.5zM714.4 208c2.9-2.9 3-3.4 2.6-9.4-.6-9.5-3.4-13.2-14.7-19-9.2-4.8-11.2-4.9-6.5-.5 4.8 4.4 5.7 7.4 4.9 16.1-.8 9.4-.3 11.4 3.8 14 4.4 2.5 6.4 2.3 9.9-1.2zM604.8 187.3c2.3-2.5 2.4-3 1.8-9.8-.7-7.7.4-11.2 4.5-14.9 3.9-3.6 2.1-3.6-4.7-.2-7.1 3.6-11.9 7.7-13.3 11.4-1.7 4.3-1.1 11.6 1.1 14 2.9 3.1 7.5 3 10.6-.5zM688.2 187.8c1.9-2 2.1-3.2 1.8-8.5-.3-5.5-.8-6.7-3.8-9.9-3.2-3.2-17-11.3-17-9.8 0 .3 1.6 2.5 3.6 4.7 3.6 4.2 3.6 4.2 3.1 11.6-.6 7.6.7 12.3 3.5 13.4 3.1 1.3 6.8.6 8.8-1.5z"/><path d="M509.8 188.7c8.8-.4 14.5-2.8 19.4-8.3 1.8-2 1.3-1.8-2 1a29.2 29.2 0 0 1-46.9-16.4l-.9-4.2 6.6.6c11.9 1.2 13.2 1.6 14.7 4.6 2.2 4.3 6.3 7 10.4 7 3.9 0 10.2-2.9 10.9-5 .3-.7-.9-.3-2.5 1-3.6 2.6-10.2 3.7-13.1 2.1-2-1-5.8-6.9-5-7.6.2 0 7.6 0 16.6.3l16.2.5v3c0 1.5-.7 4.4-1.5 6.5-1.2 3-1.2 3.4-.1 2 .8-1 2-4 2.6-6.7l1.1-4.8 12.6-.7c25.5-1.3 48.5-6 68.6-14 3.7-1.6 6.9-2.7 7-2.5l2.6 5.2c2.2 4.4 12.1 14.7 14.1 14.7a47.5 47.5 0 0 0 16.7-19.8 228.6 228.6 0 0 0 75.6 16.4l12.7.7.6 3.6c3 16.6 23 26.2 38.9 18.7a36 36 0 0 0 16-17.4l2.5-6.8c.7-1.7 2.3-2.2 10.1-3.2a692 692 0 0 0 87.4-19.7c8.5-2.5 15.9-4.5 16.4-4.5 1.5 0-1.6 11.6-4.9 18-6.5 12.8-15.6 19.4-27 19.4a34 34 0 0 1-21-6.3 33 33 0 0 0-6.9-3.5c-1 1 7.6 8.5 13.3 11.6 5.5 3 6.9 3.3 14.6 3.3a26 26 0 0 0 15.1-3.2 46 46 0 0 0 24.7-35.5l.4-6.6 16.3-5.6a197 197 0 0 1 35.8-9.6c1.4 0 1.7 1 1.7 6.4 0 7.2 2.2 11.5 7.9 15.3 5 3.4 13.8 3.2 18.1-.3 10.2-8.6 6.7-21.4-5.9-21.4-8.1 0-12 8.2-6.6 13.5 2.3 2.4 8.5 3.6 8.5 1.6 0-.4-1-.6-2.3-.4-3.1.6-7.7-3.2-7.7-6.3 0-1.4 1.2-3.7 2.6-5 2.2-2.3 3.2-2.6 7-2 2.5.1 5.4 1.2 6.4 2.1 2.8 2.5 3.5 7.5 1.6 11.8-4.3 10.3-20.6 10.1-26.5-.3-2.1-3.8-2.9-12.2-1.3-14.7.7-1 10.7-3.2 28.7-5.8l10-1.4 4 3.2c24.5 19.7 37 25.3 48 21.7a24.3 24.3 0 0 0 13.4-14.3 35 35 0 0 0-.4-17c-.8-2-.3-2 15.1-1.3 40.8 1.8 71.8 6.8 85.7 13.7 6 3 11.6 8.7 12.3 12.6 1.4 7.2-2.2 12.3-8.5 12.3-7.4 0-11.4-6.8-6.8-11.4 2.2-2.2 2.9-2.4 5.5-1.5 3.5 1.2 4.6 3.3 3.2 6a3.6 3.6 0 0 1-5.8.7c-.9-.9-1.2-.9-1.2 0 0 2.1 4.9 2.6 7 .7 3.6-3.3 1.6-7.6-4.2-9-2.1-.5-3.3 0-5.2 2-3.4 3.2-3.3 6.7.2 10.6 2.3 2.5 3.6 3.2 7.1 3.3 3.6.1 4.7-.4 7.2-3.2 5.8-6.5 3.1-15.5-6.5-21.9-11-7.2-39-13-70.6-14.9-6.9-.3-13.1-1-13.8-1.4-2.8-1.4 72-5.9 99.2-6 15.1 0 19.7-.3 18.8-1.2-.8-.8-8.4-.8-30.9.1a1702 1702 0 0 0-81.3 4.8c0-.3 2.4-2.2 5.3-4.3 4.6-3.4 5.8-3.8 10.2-3.6 3.7.2 6.6-.4 10.5-2.2 7.6-3.4 21.2-7.2 29-8a62 62 0 0 1 20.8 2c3.2 1 3-2.6-.4-6-3.5-3.4-8.6-4.9-16.1-4.4-3.4.1-5.9 0-5.7-.3.2-.4 4.9-2.6 10.4-4.9 8.9-3.8 10.7-5 16-10.8a50 50 0 0 0 6-7.3c0-1.3-15.3-1-18.6.1-1.5.6-5.7 3.3-9.3 6-3.6 2.6-7.9 5.6-9.6 6.6-2.8 1.8-2.8 1.7 1.2-3.6 4.6-6 6.3-9.8 6.3-13.6 0-2.7-2.6-8.4-3.8-8.4-.4 0-1.3 2-2 4.3-2.8 9-9.6 17.1-28.8 34.4-6.2 5.6-9.4 9.2-10 11.4-.7 2.4-2.7 4.6-7.7 8.1l-6.7 4.8-12 1.2-12 1.1-3.7-4c-8.1-8.6-22.4-13-45.6-14l-14.8-.6 11.6-3.4c14.9-4.2 23.9-8 31.5-13.2 4-2.7 7.1-4 9.2-4 6.5 0 11.8-5.3 11.8-11.7 0-1.5.6-2.4 1.5-2.4 1 0 1.5 1 1.5 2.7 0 3.4 3.6 7.3 6.8 7.3 1.3 0 5.2-1.8 8.6-4 6-4 6.2-4.2 12.9-3.7 3.8.3 6.7.2 6.7-.3 0-.6-1.3-2.4-2.9-4.2-2.8-3-3.4-3.3-11.3-3.8-8.1-.5-8.3-.6-8.3-3 0-2.3.5-2.6 5-3 6.5-.9 7.6-1.4 10.2-5.3 1.6-2.4 2.2-5.2 2.6-11.7.2-4.7.8-9.4 1.2-10.4.7-1.7.5-1.8-1.6-1.2-1.3.4-5.8 1-9.9 1.3-12.1 1-14.5 3-16.5 13.8-.9 5-1.5 6-3.1 6-1.7 0-1.9-.6-1.6-6.2.2-4-.2-7.3-1.2-9.2-1.6-3-7-8-8.7-8-.5 0-.9 3.7-.9 8.3 0 7.5-.3 8.8-2.5 11.4-3.4 4.1-4.6 7.7-3.5 10.6 1.1 3 4.7 5.6 7.7 5.6 3.6 0 2.7 1.6-1.7 3-5.4 1.5-8 5.7-8 12.6 0 4.6-.3 5.4-3.2 7.6-10.6 8.1-26.7 13.4-71.9 23.7-27.9 6.4-36.9 9-56.5 16.2-8.9 3.2-16.6 6-17.1 6s-2.6-2.3-4.8-5c-2.2-2.8-4.2-5-4.5-5a49 49 0 0 1-4.7-3.9l-4.3-3.7 9-9c7.7-7.9 9.5-9.3 13-9.8 3.1-.4 5.4-1.8 10.6-6.6a78 78 0 0 1 33.9-19.6c3.2-.8 7.4-1.5 9.2-1.5 3.1 0 3.3-.2 2.3-2-2.9-5.4-13.2-6.4-22-2-2.4 1.1-4.5 1.8-4.7 1.6s3.1-3.4 7.3-7.2 8.7-8.5 9.9-10.4a50 50 0 0 0 6.1-15.8c-.3-.3-3.9.7-8 2.2-8.4 3.1-10.9 5.4-19.1 17.4-5 7.2-7.8 9.6-5.1 4.5 2-4 3.7-12.8 3-16.2-.3-1.6-2.1-4.3-3.9-6l-3.2-3.2-.5 8.3c-.7 10.2-3.6 17.8-14.4 36.8-6.3 11.2-7.5 13.8-7 16.5.6 3-.1 3.8-8.4 12l-9.4 9.3c-.2.2-2.6-.8-5.3-2a84.2 84.2 0 0 0-47.8-5.4 187.8 187.8 0 0 0-43.5 14.1 149 149 0 0 0 10.6-17.7 96.3 96.3 0 0 0 8.1-22.5c-.3-.2-1.5 2.6-2.8 6.4a110 110 0 0 1-13.5 28 52.7 52.7 0 0 1-19.7 18.6l-5.7 3.5-6.2-2.5a95.8 95.8 0 0 0-43.2-4.5c-2.3.4 2.5.7 11.5.8 15.7 0 23.5 1.2 32.4 5l4 1.6-5.9 3a178.7 178.7 0 0 1-87.1 18 152 152 0 0 1-19-2.9l-7-1.8-1.2-5c-1.9-8.4-1.9-8.5 2.5-7.3a93 93 0 0 0 15.7 1.2c10.5.1 13.5-.3 24-3 13.3-3.7 26.8-8.2 24.5-8.3-.9 0-6.5 1.5-12.5 3.4-6.1 2-14.1 4.1-18 5a76 76 0 0 1-18.5 2c0-.2 2.4-1 5.3-2A49.5 49.5 0 0 0 707.2 98c2.3-4.4 7.9-9.8 15-14.4 6.3-4 8-4.4 10.5-1.6 3 3.3 8.5 4.5 12.5 2.6 1.9-.8 4.3-2 5.2-2.8 2.6-1.9 3.3-.3.9 2.1-5 5-.7 13.1 6.8 13.1 5.9 0 9.1 1.6 14.3 7.2l4.7 5.1.6-3.7c1.1-5.5-.1-8.3-5.5-13.5-5.2-5-6.2-7.4-3.4-8.5 1.8-.7 3.4.1 5.2 2.5.6 1 2.8 2.3 4.7 3 5.1 1.6 9.9-.3 16.5-6.6 3-2.8 6.6-5.7 7.9-6.5l2.4-1.2-3-1.3c-1.7-.7-4.8-2.9-6.9-4.7-8.2-7.3-13.2-8.6-18.5-5-7.7 5.1-9.3 6.1-10.1 5.6-1.8-1-.5-3.6 4.2-8.2 4.9-4.8 5-4.9 5-11 0-3.4-.4-6.2-.8-6.2-.5 0-2.1 1.4-3.8 3.1-4.4 4.7-10.4 9-11.9 8.3-2.2-.9-8.3 1.5-10 4-2.1 3-1.9 7 .5 10 2.3 2.8.9 4.7-1.8 2.3-3.1-2.7-6-2.9-10.6-.9a17 17 0 0 0-6.1 4.6c-1 1.4-4.3 4-7.4 5.6a51.3 51.3 0 0 0-9.7 7l-4.2 4 .1-7.3c.1-10-2.4-16.9-8.2-22.7a21.5 21.5 0 0 0-25.1-4.9 20.5 20.5 0 0 0-11.1 10.1c-5.2 10.2.7 24.1 10.9 25.5 8 1.1 17.2-5.9 17.2-13 0-6.5-6.3-12.6-11.8-11.2-3.2.8-8.2 4.3-8.2 5.7 0 .7 1 .2 2.3-1 5.2-4.9 10.5-4.8 14.6.4 4.4 5.6 1.6 13-6.3 16.5-5.3 2.4-8.3 2.4-12.4 0-6.1-3.8-8.9-14.2-5.8-21.4A24.1 24.1 0 0 1 686.1 56c18 0 29.1 22.3 20.4 40.8-6.3 13.3-28.9 24.1-44.3 21.2l-5.7-1a94.7 94.7 0 0 0-15.3-23 96.5 96.5 0 0 0-13.3 19.2c-1.4 3.3-2 3.7-7.2 4.8a36 36 0 0 1-21.5-2.6c-13-4.9-21.5-12.4-24.6-21.7a39.3 39.3 0 0 1 1.4-24.3c3.9-7.6 12.4-13.4 19.8-13.4 1.1 0 4.3.7 7.1 1.5 10.1 3 16.3 14 13.4 23.5-2.6 9-9.5 12.6-17.5 9.6-8.7-3.3-12.1-11-7.5-17 4.1-5.2 9.3-5.3 14.8-.3 2.4 2.2 2.4 2.2 1.3.1s-6.8-5.4-9.2-5.4c-4.7 0-10 6.2-10 11.7 0 7.1 9.2 14.1 17.2 13 12.6-1.7 17.1-20 7.5-30.6a28.5 28.5 0 0 0-16.1-7c-14.8 0-25.1 12.1-24.9 29.6l.1 7.2-4.2-3.9a51.3 51.3 0 0 0-9.7-7 25.6 25.6 0 0 1-7.4-5.6 17 17 0 0 0-6.1-4.6c-4.6-2-7.5-1.8-10.6 1-2.7 2.3-4.1.4-1.8-2.5 2.4-3 2.6-7 .5-10-1.7-2.4-7.8-4.8-10-3.9-1.5.6-7.5-3.6-11.9-8.3-1.7-1.7-3.3-3-3.8-3-.4 0-.8 2.7-.8 6.1 0 6.1.1 6.2 5 11 7.8 7.5 6.5 11.1-1.9 5.3-8.9-6.2-12.7-6-21.1 1-3 2.4-6.7 5.1-8.3 6l-2.9 1.2 3.4 2.1c1.8 1.2 5.2 4.1 7.5 6.5 5.2 5.3 10.8 7.4 15.9 5.7 1.8-.6 4-1.9 4.6-2.9 1.8-2.4 3.4-3.2 5.2-2.5 2.8 1.1 1.8 3.5-3.4 8.5-5.4 5.2-6.6 8-5.5 13.5l.6 3.7 4.7-5c5.2-5.7 8.4-7.3 14.3-7.3 7.5 0 11.8-8 6.8-13-2.4-2.5-1.7-4 .9-2.2 6.6 4.8 12 5 17.2.5 2.2-1.8 3.6-2.3 5.2-1.7A49 49 0 0 1 575.2 98c3.8 7.3 13.8 15 24.8 19 3.4 1.2 6.2 2.4 6.2 2.5l-5.2-.2c-9-.7-20.8-3.4-33.8-7.5a71.8 71.8 0 0 0-24-4.5 83.3 83.3 0 0 0-34.8 5l-6.2 2.5-5.7-3.5a53.2 53.2 0 0 1-19.8-18.7 109 109 0 0 1-13.5-28c-1.3-3.9-2.5-6.6-2.7-6-1 3 8.5 24.4 15.1 34.3 3.8 5.6 4.4 7 2.4 5.3-2.2-1.7-19.9-8.4-28.5-10.8-22.7-6.2-46.4-5.4-61.6 2.3l-4.8 2.4-5.2-4.8c-10.8-9.9-13.7-13.7-13.7-17.9 0-2.8-1.4-6.2-4.5-11.9A193.7 193.7 0 0 1 344.3 25c-.6-2.5-1.1-7.2-1.1-10.4v-6l-3.4 3.3a14.8 14.8 0 0 0-4 6.2c-.7 3.4 1 12.1 3 16.2 2.7 5.1-.1 2.7-5.1-4.5-7.5-10.7-9.3-12.7-14.4-15.2-5.4-2.7-12-5-12.7-4.3-.3.2.7 3.8 2.2 7.8 2.5 6.8 3.5 8.2 12.2 16.6l9.6 9.2-6-2.4c-9.4-3.9-18.6-2.8-21.4 2.5-1 1.8-.8 2 2.3 2 12.1 0 29.7 8.7 43.6 21.6 4.7 4.3 7 5.7 10.1 6.1 3.5.5 5.3 1.8 13 9.7l9 9.1-4.3 3.7a49 49 0 0 1-4.7 3.8c-.3 0-2.3 2.3-4.5 5-2.2 2.8-4.3 5-4.8 5s-8.2-2.7-17.1-5.9A373.6 373.6 0 0 0 289.3 88c-45-10.3-61.3-15.6-71.9-23.6-2.9-2.2-3.2-2.9-3.2-7.6 0-7-2.6-11.2-8-12.8-4.4-1.3-5.3-2.9-1.7-2.9 3 0 6.6-2.6 7.8-5.6 1.1-3-.7-7.9-4-10.8-1.8-1.7-2.1-3-2.1-10.8 0-5.4-.4-8.8-1-8.8s-3 1.8-5.3 4l-4.2 4v7.7c0 6.4-.3 7.8-1.7 8.1-1.7.3-2.2-.7-3.3-7.3-.9-5.2-3-9.2-5.7-10.6a40 40 0 0 0-10.6-2c-4.5-.5-9.2-1.4-10.4-2-1.9-1-2-.9-1.4 1.2.4 1.3 1 6.2 1.3 11 .4 6.2 1.1 9.2 2.7 11.6 2.5 4 3.6 4.4 10.1 5.2 4.5.5 5 .8 5 3.1 0 2.4-.2 2.5-8.3 3-7.9.5-8.5.7-11.3 3.8-1.6 1.8-2.9 3.6-2.9 4.2 0 .5 2.9.6 6.8.3 6.6-.5 6.8-.4 12.8 3.6 3.4 2.3 7.2 4.1 8.5 4.1 3.2 0 6.9-3.8 6.9-7.2 0-1.8.5-2.8 1.5-2.8s1.5 1 1.5 3.3c0 5.8 5.4 10.7 12 10.7a20 20 0 0 1 9 4.1c7.6 5.2 16.6 9 31.5 13.2l11.6 3.4-14.8.6c-23.3 1-37.5 5.4-45.6 14l-3.8 4.1-11.9-1.2-12-1.2-6.9-5c-5.4-3.9-7-5.7-7.5-8.2-.5-2.7-3.2-5.5-13.5-14.5a169 169 0 0 1-17.6-17.5 42.2 42.2 0 0 1-8.5-16.4c0-2.4-1.9-1.6-3.5 1.6-2.9 5.6-1.7 10.4 4.8 19 4 5.3 4 5.4 1.2 3.6-1.7-1-6-4-9.6-6.7a69.1 69.1 0 0 0-9.3-5.9c-3.3-1.2-18.6-1.4-18.6 0a50 50 0 0 0 6 7.2c5.3 5.8 7.1 7 16 10.8a70.8 70.8 0 0 1 10.4 5c.2.2-2.3.3-5.7.2-7.5-.5-12.6 1-16.1 4.4-3.4 3.4-3.6 7-.3 6a61.3 61.3 0 0 1 20.7-2c7.8.8 21.4 4.6 29 8 3.9 1.8 6.8 2.4 10.5 2.2 4.4-.2 5.6.2 10.2 3.6 2.9 2.1 5.3 4 5.3 4.3 0 .2-1.9.2-4.2-.2C147.2 96 59.6 92.2 57.9 94c-.8.8 4.1 1.1 18.8 1.1 18.9.1 46.2 1.4 83.8 4.1 16.9 1.2 20.5 2.7 7.2 3-3.8.1-9.9.5-13.5 1-3.7.3-.4.4 7.5 0 7.7-.3 18.7-.6 24.5-.6 8.8 0 10.4.2 10.1 1.5a39.2 39.2 0 0 0 0 16.7 22.6 22.6 0 0 0 14 14.3c9.7 2.6 22.5-2 36.4-13.2l11.5-9 3.6-2.7 9.9 1.4 19.3 3.1c10.5 2 10.8 2.3 10 11.3-.9 9.4-7.6 14.7-17.4 14-3.9-.4-6.1-1.2-7.9-2.9-3-2.9-5-8.8-4.1-12.4.8-3.4 6.1-6.6 10.8-6.6 6.1 0 10.2 7.5 6.2 11.4-1.8 2-5.9 3-7.3 2.1-.6-.3-1.1 0-1.1.4 0 2.1 6 1.1 8.5-1.4a7.3 7.3 0 0 0 0-11c-4.2-4.3-12.9-3-17.2 2.5-3.2 4-.4 13.8 4.9 17a19 19 0 0 0 17.9-.3c5.7-3.8 7.9-8 7.9-15.3 0-5.4.3-6.4 1.8-6.4 4.2.1 20 4.3 35.1 9.4l16.7 5.6c.1 0 .4 3 .6 6.8a46 46 0 0 0 24.7 35.5 26 26 0 0 0 15.1 3.2c9.8 0 14.9-2 23.3-9.5 5.4-4.8 6.3-7.3 1.5-4a98 98 0 0 1-9.8 5.3 24.7 24.7 0 0 1-14 3.1c-6.2.1-8.4-.4-12.6-2.6a37.4 37.4 0 0 1-15.4-16.8c-3.3-6.4-6.4-18-4.9-18 .5 0 7.9 2 16.4 4.5a692 692 0 0 0 87.4 19.7c7.8 1 9.4 1.5 10.1 3.2l2.6 7.1a35.3 35.3 0 0 0 15.9 17.2c4.3 2.1 6.1 2.4 13.1 2zm238.7-20-.5-4.4 16.3-.5c9-.3 16.5-.4 16.7-.3.8.7-3 6.6-5 7.6-2.9 1.6-9.5.5-13.1-2-1.6-1.4-2.8-1.8-2.5-1 .7 2 7 5 10.9 5 4.1 0 8.2-2.8 10.4-7 1.5-3 2.8-3.5 14.7-4.7l6.6-.6-.7 3.5c-2.2 9.6-11.6 20.4-19.9 22.7-15.3 4.2-32.4-5-33.9-18.3zM641.2 165c-2.7 0-11.1-8.8-13.5-13.9l-1.9-4.3 2.2-1.6c1.2-1 4.7-3 7.7-4.6l5.5-2.8 5.5 2.8c3 1.6 6.5 3.6 7.7 4.6l2.2 1.6-1.9 4.3a39 39 0 0 1-6.8 9.1c-2.6 2.6-5.7 4.8-6.7 4.8zm-106.9-2-11.3-.2c-6.2 0-13.9-.3-17-.5-5.8-.4-5.8-.4-5.8-3.7 0-1.8.6-4 1.3-5 1.2-1.6 1.9-1.6 12.2 0 21.8 3.1 20 2.5 20.3 6.2l.3 3.2zm13.1-.4c-11.7.7-12.2.5-12.2-4.7 0-1.7.4-1.9 2.3-1.3 1.2.4 12.9.7 25.9.8 25 .1 25.9.5 6.8 3a313 313 0 0 1-22.8 2.2zm165.7-2c-20.2-2.6-19.2-3 5.9-3.2 13 0 24.7-.4 26-.8 1.8-.6 2.2-.4 2.2 1.3 0 1-.3 2.6-.6 3.5-.9 2.3-8.5 2.1-33.5-.9zm43.8 2.4h-8.8l.3-3.2c.3-3.7-1.5-3 20.3-6.3 10.3-1.5 11-1.5 12.2.1.7 1 1.3 3.2 1.3 5v3.1l-8.2.6c-4.6.4-12.3.7-17.1.7zm-258.4-1c-.5-.2-5-.7-10.2-1.3l-9.4-.9.6-5.5c.3-3 .8-5.7 1.1-6 .7-.7 20.6 3 20.6 4 0 .3-.4 1-1 1.2-.5.3-1 2.4-1 4.6 0 2.1-.3 3.8-.7 3.8zm286.5-.4c-1.5.5-1.8 0-1.8-3.5 0-2.2-.4-4.3-1-4.6-.5-.3-1-.9-1-1.3 0-.9 19.9-4.6 20.6-3.9.3.3.8 3 1.1 6l.6 5.5-8.4.7c-4.6.3-9.2 1-10.1 1.1zM474.8 159c-14.9-.6-76.2-14.6-105.5-24l-6.4-2.2.6-6.3c.3-3.4 1.3-7.8 2.1-9.8l1.5-3.6 9.5 3.5a999 999 0 0 0 102.2 30.8c.2.1 0 2.8-.3 6-.6 5.6-.6 5.7-3.7 5.6zm329.1-5.6c-.3-3.2-.5-5.9-.3-6a999 999 0 0 0 102.2-30.8l9.5-3.5 1.5 3.6c.8 2 1.8 6.4 2.1 9.8l.6 6.3-6.4 2.1a693.5 693.5 0 0 1-89.5 21.7c-20.4 3.4-19 3.6-19.7-3.2zm-234.7 3.1c-10.6.3-17.4.1-28.7-1-5.8-.5-6.4-.8-8.4-4a17.8 17.8 0 0 0-14.4-7.4c-3.8 0-13.6 3.8-14.8 5.7a61.4 61.4 0 0 1-21.4-4.3c-.7-2 7.7-17.2 12.1-22l4.2-4.8 6 3.6a149 149 0 0 0 78.1 21.8 111.9 111.9 0 0 0 40.8-6.8l.9 4.4.6 4.1-9.3 3.6a71.6 71.6 0 0 1-27.7 6.5l-18 .6zm143 .2c-.3-.3-5.9-.6-12.4-.7a74.5 74.5 0 0 1-32.4-6.7c-8.3-3-9.3-3.8-8.8-5.6.3-1.2.6-3.2.6-4.5 0-1.8.4-2.2 1.8-1.6.9.5 5.5 2 10.2 3.3 7.8 2.3 10.1 2.5 29 2.6 18 .1 21.8-.2 30.9-2.2 17.5-4 32.4-9.9 47.5-19l6-3.6 4.2 4.8c4.4 4.8 12.8 20 12.1 22a61.4 61.4 0 0 1-21.4 4.3c-1.2-1.9-11-5.7-14.8-5.7-5.7 0-11.8 3.1-14.4 7.3-2 3.2-2.7 3.6-7.9 4.1a236 236 0 0 1-30.2 1.2zM531 155c-3.7-.2-26.1-3.9-26.5-4.3-.8-.8 4.1-3.5 8.7-4.7 6.4-1.7 11.6-.5 15.7 3.6 1.8 1.8 3.3 3.8 3.3 4.4s-.6 1.1-1.2 1zm219.2-1c0-.6 1.5-2.6 3.3-4.4 4.1-4 9.3-5.3 15.7-3.6 4.4 1.2 9.5 4 8.8 4.6a65 65 0 0 1-9.8 2c-17.4 2.5-18 2.6-18 1.4zm-270.9-8c-5.7-.5-32.2-12.8-50.6-23.4a642 642 0 0 1-40.4-26.3l-2.4-1.9 5.8-2.2a110 110 0 0 1 73 2c10.8 4.1 19.3 8.8 20 11 .3 1 3.2 4.2 6.5 7.3l6 5.7-3.2 3.2a67 67 0 0 0-12.4 19.7c-1 2.7-2 5-2.3 5zm321.5-4.9a67 67 0 0 0-12.4-19.7l-3.2-3.2 6-5.7c3.3-3 6.2-6.4 6.5-7.4.7-2 9.2-6.8 20-11a110 110 0 0 1 73-1.9l5.8 2.2-2.4 2c-5.3 4.1-31 20.8-40.3 26.2a398.7 398.7 0 0 1-39.6 19.7c-11.4 4.5-11.4 4.5-13.4-1.2zm-171.3 1.8c-4.6 2.4-5.3 2-5.3-3.8 0-2 .7-3 3-4 1.7-.7 5.5-2.8 8.5-4.6l5.5-3.3 5.5 3.3c3 1.8 6.8 4 8.5 4.6 2.4 1 3 1.8 3 4.4 0 5.8-1 6-9.4 1.1l-7.8-4.4-3.6 2.3c-2.1 1.3-5.6 3.3-7.9 4.4zM462 142l-2.3-.6c-24-6-91.5-28-91.5-29.8 0-1.9 7.7-10.2 12.4-13.5l4.3-2.9 10.1 7.3a499.3 499.3 0 0 0 67.2 39c0 .4-.1.5-.2.5zm361.8-2.5c13-5.5 48.5-26 63.6-37l10.1-7.3 4.3 3c4.7 3.2 12.4 11.5 12.4 13.4a811 811 0 0 1-68.5 23.4c-22.8 6.5-30.5 8.1-21.9 4.5zm-256.4-3.9a200.2 200.2 0 0 1-57.7-17.3l-6-3 3.8-1.6c8.6-3.7 17-5 31.7-5 14.3 0 14.7.1 27 4.1 6.9 2.2 16.4 5 21 6 9.6 2 28.4 2.3 34.3.6 4.3-1.3 4.3-1.2 2.4 7.2l-1.2 5-6.7 1.7a123 123 0 0 1-48.6 2.3zm-361.9-4a22.7 22.7 0 0 1-8.2-25.4c1.3-3.8.4-3.8 26.9-.7l26.5 3.2c3.3.4 6.5 1 7.2 1.3.7.4-2.5 3.6-8.3 8.1a75 75 0 0 1-23.4 14.4c-9.1 2.8-15.3 2.6-20.7-.9zm850.3 1a93.9 93.9 0 0 1-24.3-15.3c-5.5-4.3-7.9-6.8-7.1-7.3.7-.3 4-.9 7.3-1.3l26.5-3.2c26.5-3 25.6-3 26.9.7 3.7 10.7-1.7 23-12.1 27.3-5.2 2.2-10.3 2-17.2-.9zm-697.3-9.9-2.8 8.1-16-5.4a296 296 0 0 0-27-7.8c-7.3-1.6-11.3-2.9-12-4-5.1-8.6-11.6-13.5-17.8-13.5a42 42 0 0 0-16.7 6l-4.8 2.8-22.9-2.8a1224 1224 0 0 0-30.5-3.5c-9.2-.9-9.6-1.8-3.6-6.9 9.1-7.8 22.8-10.9 48.3-10.9l19 .1 21.5 5.1c27.7 6.7 32.1 8 52.3 15.3 13.4 5 16.7 6.5 16.3 7.7l-3.3 9.7zM944 125l-17.4 5.8-2.7-8-3.3-9.8c-.4-1.3 2.8-2.8 16.3-7.7 17-6 25.4-8.7 37.3-11.6l21.5-5.2c14.5-3.5 15.6-3.6 34-3.7 25.5 0 39.2 3 48.3 11 6 5 5.6 6-3.5 6.8l-30.7 3.5-22.8 2.8-4.7-2.8c-5.3-3.2-13-6-16.7-6-6.1 0-13.2 4.8-16.5 11.2-2.1 4-2 4-13.6 6.3-4.5 1-16 4.2-25.5 7.4zm-319.8 4.4c0-.5.6-3 1.3-5.7 1.4-5.3 1.3-5.2 10-9l5.7-2.5 5.8 2.5c8.6 3.8 8.5 3.7 9.9 9 .7 2.7 1.3 5.2 1.3 5.7 0 1.5-2.9.6-9.9-2.9l-7.1-3.5-7.1 3.5c-7 3.5-9.9 4.4-9.9 3zm4-14c0-2.3 11.5-19.3 13-19.3 1.9 0 13.8 18.5 12.7 19.7-.3.2-3.3-.7-6.7-2-6.1-2.5-6.2-2.5-10.3-.7-5.9 2.5-8.7 3.3-8.7 2.3zm-329.7-.4a502 502 0 0 1-33.8-6c-.8-.9 8.7-5.7 13.8-6.9 4-1 5.4-1 9.2.5 4.5 1.6 11.5 8.5 11.5 11.2 0 .7-.3 1.2-.7 1.2zm686.5-.3c-3.2 1-2-2.4 2.5-7 7.4-7.7 15.9-8 27.2-1.2 4.8 3 5.7 2.5-14.5 5.6l-15.2 2.6z"/><path d="M99.5 139c3.4-3.8 3.5-7.3.1-10.6-1.9-2-3.1-2.4-5.2-1.9-5.8 1.4-7.8 5.7-4.2 9 2.1 2 7 1.4 7-.7 0-.9-.3-.9-1.2 0a3.6 3.6 0 0 1-5.8-.7c-1.3-2.5-1.3-2.7.6-4.5.8-.9 3-1.6 4.9-1.6 2.6 0 3.5.5 4.4 2.8 1.4 3.4.2 7.6-2.8 9.1-3.1 1.7-8.6 1.3-11.2-.8-2-1.6-2.4-2.8-2.4-7.5 0-4.9.4-5.9 3.5-9 6.9-7.3 22.4-12.6 48-16.6 10-1.6 11-1.9 5-1.4-18 1.3-40.5 7.3-49.5 13.3-10 6.6-11.7 19.3-3.1 23.5 4.1 2.1 8.4 1.2 11.9-2.5zM46.8 110.3c3-4 6.4-10.9 6.4-12.9 0-1.3-.6-1.5-3.7-.9-9.9 1.8-18.3 9.8-18.3 17.4 0 1.6.6 3.1 1.3 3.4 3.3 1.3 10.9-2.4 14.3-7zM1247.5 117c3.5 0 3.7-.2 3.7-3 0-6.9-6.7-14-15.5-16.6-3.1-.8-6-1.4-6.5-1.2-1.1.3 3.8 11 6.7 14.6a25 25 0 0 0 4.8 4.2c1.7 1.1 4.7 2 6.8 2zM17.2 99.4c6.3-.6 21.1-5.4 21.3-6.9C38.9 89.8 19.4 82 12 82c-4.4 0-9.3 2.1-10.2 4.5C-.1 91.5 3 97.3 8.5 99c1.8.6 5.7.8 8.7.5zM1273.7 99c6.2-1.4 9.1-6.7 6.9-12.5-.9-2.4-5.8-4.5-10.2-4.5-7.3 0-27 7.8-26.5 10.5.2 1.3 11.4 5.4 17.6 6.4 7.1 1.2 7.6 1.2 12.2.1zM54.2 89a39 39 0 0 0-6.6-15.7c-2.4-3-7.6-6.3-10.4-6.3-1.9 0-2.9 4.6-1.8 8.7 1.5 5.6 5.1 9.8 11 12.7 6.2 3.1 7.8 3.2 7.8.6zM1240.9 85.3c5.3-4 8.6-14.4 5.5-17.5-1.7-1.7-7.9 1.1-11.2 5-3.1 3.8-7 12.8-7 16.2s5.4 1.8 12.7-3.7zM818.7 47.3a21.9 21.9 0 0 0-11.9-12.8c-5.9-2.3-8.6-1.3-8.6 2.8 0 6 7.1 12.4 17.9 16.2 4.5 1.5 5 .2 2.6-6.2zM457.2 52.7c0-.8-1.4-4.2-3.1-7.6-3.8-7.6-10.2-12.4-15.9-11.9-4.4.4-5 3-2.1 8.6 2.1 4.1 6.4 7.4 13.6 10.4 4.9 2.1 7.5 2.2 7.5.5zM482.3 42.6c2.7-4.4 2.5-8.4-.5-9.2-2.8-.7-9.1 1.8-12.5 5a33.3 33.3 0 0 0-7.1 14c0 5.1 15.5-2.3 20.1-9.8zM832.7 52.4c8.6-3 17-13 15.1-18-.9-2.4-7.7-1.3-12.7 2-3.8 2.6-7.9 9-9.3 15-.8 3.1.1 3.3 6.9 1zM459.4 40.5l1.8-3.5c6.1-11.3 8.3-26.8 4.7-32.2-5.2-7.7-15.7-2.2-15.7 8.1a66 66 0 0 0 6.1 21.1l3.1 6.5zM828.1 29c5.6-14.5 5.1-23.8-1.5-26.6-12.3-5.2-16 11-7.1 31 3.6 8 3.9 8 8.6-4.4z"/></svg>
