<svg xmlns="http://www.w3.org/2000/svg" fill="none" viewBox="0 0 24 24"><path fill="#292D32" d="M16.2 2H7.8C4.2 2 2 4.2 2 7.8v8.4C2 19.8 4.2 22 7.8 22h8.4c3.6 0 5.8-2.2 5.8-5.8V7.8C22 4.2 19.8 2 16.2 2Zm-4.6 9.8c0 3.1-.7 3.8-2.4 4.9h-.4a.7.7 0 0 1-.7-.3c-.2-.4 0-.8.3-1 1.2-.8 1.6-1 1.7-2.8H8c-1 0-1.8-.9-1.8-2V9.2c0-1.1.8-2 1.9-2h1.5c1 0 2 .9 2 2v2.6Zm6.2 0c0 3.1-.7 3.8-2.5 4.9h-.4a.7.7 0 0 1-.6-.3c-.3-.4-.1-.8.2-1 1.2-.8 1.6-1 1.7-2.8h-1.9c-1 0-2-.9-2-2V9.2c0-1.1 1-2 2-2h1.5c1 0 2 .9 2 2v2.6Z"/></svg>